<svg width="22" height="19" viewBox="0 0 22 19" fill="none" xmlns="http://www.w3.org/2000/svg">
<path d="M7.83032 0.0371094C9.78321 -0.0119466 11.7173 -0.0119583 13.6702 0.0371094L13.7278 0.0390625C15.2526 0.0773516 16.4798 0.108046 17.4631 0.279297C18.4926 0.45859 19.3295 0.802166 20.0364 1.51172C20.7402 2.21826 21.0822 3.04294 21.2581 4.05566C21.4255 5.02004 21.4511 6.21735 21.4827 7.7002L21.4836 7.75879C21.5049 8.75512 21.5049 9.74585 21.4836 10.7422L21.4827 10.8008C21.4511 12.2836 21.4255 13.481 21.2581 14.4453C21.0822 15.458 20.7402 16.2828 20.0364 16.9893C19.3295 17.6988 18.4926 18.0424 17.4631 18.2217C16.4798 18.3929 15.2526 18.4236 13.7278 18.4619L13.6702 18.4639C11.7173 18.5129 9.78321 18.5129 7.83032 18.4639L7.77173 18.4619C6.24693 18.4236 5.01969 18.3929 4.03638 18.2217C3.00697 18.0424 2.16995 17.6988 1.46313 16.9893C0.759353 16.2828 0.417347 15.4579 0.241455 14.4453C0.0739878 13.481 0.0484426 12.2836 0.0168457 10.8008L0.0158691 10.7422C-0.00537853 9.74586 -0.00537694 8.75512 0.0158691 7.75879L0.0168457 7.7002C0.0484421 6.21735 0.0739855 5.02004 0.241455 4.05566C0.417322 3.04298 0.759381 2.21824 1.46313 1.51172C2.16994 0.802223 3.00699 0.4586 4.03638 0.279297C5.0197 0.108048 6.2469 0.0773483 7.77173 0.0390625L7.83032 0.0371094ZM1.67114 4.62988C1.5672 5.42237 1.54501 6.42466 1.51587 7.79102C1.49508 8.76594 1.49508 9.73503 1.51587 10.71C1.54904 12.2655 1.57418 13.3489 1.71997 14.1885C1.85957 14.9922 2.09943 15.5019 2.52661 15.9307C2.95081 16.3563 3.46689 16.6001 4.29419 16.7441C5.15537 16.8941 6.27099 16.9238 7.86743 16.9639C9.79531 17.0123 11.7042 17.0123 13.6321 16.9639C15.2287 16.9238 16.3451 16.8941 17.2063 16.7441C18.0336 16.6 18.5497 16.3565 18.9739 15.9307C19.4011 15.5018 19.6409 14.9922 19.7805 14.1885C19.9263 13.3489 19.9514 12.2655 19.9846 10.71C20.0054 9.73504 20.0054 8.76593 19.9846 7.79102C19.9555 6.42512 19.9313 5.42322 19.8274 4.63086L14.2073 7.81641C12.914 8.54917 11.8627 8.99707 10.7502 8.99707C9.63796 8.99701 8.58718 8.54899 7.29419 7.81641L1.67114 4.62988ZM13.6321 1.53711C11.7042 1.48867 9.79532 1.48867 7.86743 1.53711C6.27097 1.57722 5.15537 1.60689 4.29419 1.75684C3.46681 1.90093 2.95083 2.14457 2.52661 2.57031C2.35369 2.74389 2.21227 2.93136 2.09497 3.14551L8.03345 6.51074C9.28859 7.22191 10.0501 7.49701 10.7502 7.49707C11.4504 7.49707 12.2127 7.222 13.468 6.51074L19.4045 3.14648C19.2872 2.93212 19.1469 2.74403 18.9739 2.57031C18.5497 2.14452 18.0336 1.90097 17.2063 1.75684C16.3451 1.60685 15.2287 1.57723 13.6321 1.53711Z" fill="#161616"/>
</svg>
