<svg width="24" height="24" viewBox="0 0 24 24" fill="none" xmlns="http://www.w3.org/2000/svg">
<rect opacity="0.4" width="0.01" height="0.01" fill="#1C252E"/>
<path d="M8.75 15.75C8.75 16.0152 8.64464 16.2696 8.45711 16.4571C8.26957 16.6446 8.01522 16.75 7.75 16.75C7.48478 16.75 7.23043 16.6446 7.04289 16.4571C6.85536 16.2696 6.75 16.0152 6.75 15.75C6.75 15.4848 6.85536 15.2304 7.04289 15.0429C7.23043 14.8554 7.48478 14.75 7.75 14.75C8.01522 14.75 8.26957 14.8554 8.45711 15.0429C8.64464 15.2304 8.75 15.4848 8.75 15.75ZM12.75 15.75C12.75 16.0152 12.6446 16.2696 12.4571 16.4571C12.2696 16.6446 12.0152 16.75 11.75 16.75C11.4848 16.75 11.2304 16.6446 11.0429 16.4571C10.8554 16.2696 10.75 16.0152 10.75 15.75C10.75 15.4848 10.8554 15.2304 11.0429 15.0429C11.2304 14.8554 11.4848 14.75 11.75 14.75C12.0152 14.75 12.2696 14.8554 12.4571 15.0429C12.6446 15.2304 12.75 15.4848 12.75 15.75ZM15.75 16.75C16.0152 16.75 16.2696 16.6446 16.4571 16.4571C16.6446 16.2696 16.75 16.0152 16.75 15.75C16.75 15.4848 16.6446 15.2304 16.4571 15.0429C16.2696 14.8554 16.0152 14.75 15.75 14.75C15.4848 14.75 15.2304 14.8554 15.0429 15.0429C14.8554 15.2304 14.75 15.4848 14.75 15.75C14.75 16.0152 14.8554 16.2696 15.0429 16.4571C15.2304 16.6446 15.4848 16.75 15.75 16.75Z" fill="#1C252E"/>
<path fill-rule="evenodd" clip-rule="evenodd" d="M5 7.75V9.053C4.77333 9.06833 4.55933 9.08967 4.358 9.117C3.458 9.237 2.7 9.497 2.098 10.098C1.496 10.7 1.238 11.458 1.117 12.358C1 13.225 1 14.328 1 15.695V15.805C1 17.172 1 18.275 1.117 19.142C1.237 20.042 1.497 20.8 2.098 21.402C2.7 22.004 3.458 22.262 4.358 22.384C5.225 22.5 6.328 22.5 7.695 22.5H15.805C17.172 22.5 18.275 22.5 19.142 22.384C20.042 22.262 20.8 22.004 21.402 21.402C22.004 20.8 22.262 20.042 22.384 19.142C22.5 18.275 22.5 17.172 22.5 15.805V15.695C22.5 14.328 22.5 13.225 22.384 12.358C22.262 11.458 22.004 10.7 21.402 10.098C20.8 9.496 20.042 9.238 19.142 9.117C18.9287 9.08877 18.7146 9.06742 18.5 9.053V7.75C18.5 5.95979 17.7888 4.2429 16.523 2.97703C15.2571 1.71116 13.5402 1 11.75 1C9.95979 1 8.2429 1.71116 6.97703 2.97703C5.71116 4.2429 5 5.95979 5 7.75ZM11.75 2.5C10.3576 2.5 9.02226 3.05312 8.03769 4.03769C7.05312 5.02226 6.5 6.35761 6.5 7.75V9.003C6.87333 9.00033 7.27167 8.99933 7.695 9H15.805C16.2283 9 16.6267 9.001 17 9.003V7.75C17 4.85 14.65 2.5 11.75 2.5ZM4.558 10.603C3.824 10.702 3.436 10.883 3.159 11.159C2.882 11.436 2.702 11.824 2.603 12.559C2.502 13.314 2.5 14.315 2.5 15.75C2.5 17.185 2.502 18.186 2.603 18.942C2.702 19.676 2.883 20.064 3.159 20.341C3.436 20.618 3.824 20.798 4.559 20.897C5.313 20.998 6.315 21 7.75 21H15.75C17.185 21 18.186 20.998 18.942 20.897C19.676 20.798 20.064 20.617 20.341 20.341C20.618 20.064 20.798 19.676 20.897 18.941C20.998 18.186 21 17.185 21 15.75C21 14.315 20.998 13.313 20.897 12.558C20.798 11.824 20.617 11.436 20.341 11.159C20.064 10.882 19.676 10.702 18.941 10.603C18.186 10.502 17.185 10.5 15.75 10.5H7.75C6.315 10.5 5.313 10.502 4.558 10.603Z" fill="#1C252E"/>
</svg>
