<svg width="49" height="41" viewBox="0 0 49 41" fill="none" xmlns="http://www.w3.org/2000/svg">
<path d="M37.8203 0.479492C39.139 0.42084 41.435 0.858079 43.0947 2.26562C43.8332 2.89192 44.1959 3.65172 44.3975 4.32227C44.5779 4.92269 44.6566 5.55516 44.7178 6.04883C44.7229 6.09012 44.7275 6.13067 44.7324 6.16992C44.9365 7.79684 45.5442 9.35394 47.0684 11.0576C50.0886 14.4335 49.1524 17.8389 47.0898 19.5234C46.99 19.605 46.8791 19.6916 46.7598 19.7832V27.4922C46.7598 30.1739 46.76 32.3354 46.498 34.0352C46.2261 35.7995 45.6442 37.2849 44.292 38.4648C42.9394 39.645 41.236 40.1533 39.2129 40.3906C37.2644 40.6192 34.7862 40.6192 31.7129 40.6191H17.9814C14.9082 40.6192 12.4309 40.6192 10.4824 40.3906C8.45922 40.1533 6.75596 39.645 5.40332 38.4648C4.05103 37.2849 3.46918 35.7995 3.19727 34.0352C2.93535 32.3354 2.9355 30.1739 2.93555 27.4922V19.875C2.53275 19.5265 2.16983 19.1227 1.87988 18.6553C1.20241 17.563 0.580496 16.4427 0.710938 15.0713C0.835186 13.766 1.61808 12.471 2.82227 10.8896C3.95481 9.4023 4.5141 8.32415 4.79688 7.53418C5.07213 6.76506 5.10449 6.21717 5.10449 5.7373C5.1046 4.82864 5.44232 3.50566 6.46973 2.40039C7.56013 1.22744 9.30282 0.438036 11.7373 0.536133L37.8203 0.479492ZM16.2539 18.4668C16.0005 18.8375 15.7089 19.1948 15.3799 19.5312C13.9157 21.028 11.6901 22.1143 8.78027 22.0566C8.7418 22.0559 8.70336 22.0538 8.66504 22.0508C8.01342 21.9987 7.17876 21.8576 6.30664 21.6025V27.3848C6.30664 30.199 6.30987 32.1622 6.53809 33.6436C6.75986 35.0828 7.16581 35.8456 7.78809 36.3887C8.41016 36.9315 9.28392 37.2851 10.9326 37.4785C12.63 37.6776 14.8797 37.6807 18.1055 37.6807H31.5898C34.8157 37.6807 37.0653 37.6776 38.7627 37.4785C40.4112 37.2851 41.2842 36.9314 41.9062 36.3887C42.5286 35.8456 42.9345 35.0829 43.1562 33.6436C43.3845 32.1622 43.3887 30.199 43.3887 27.3848V21.6133C41.8161 22.1361 39.914 22.3225 37.8359 21.5752C36.0535 20.9342 34.6955 20.0846 33.7578 18.877C33.66 18.7509 33.5679 18.6226 33.4814 18.4922C33.3228 18.6613 33.1584 18.8266 32.9883 18.9863C31.7437 20.1551 30.1057 21.1553 28.2539 21.6035C26.5204 22.0231 23.757 22.2329 21.0381 21.4209C19.2898 20.8987 17.6024 19.9637 16.2539 18.4668ZM30.4707 29.1982C31.1669 28.6598 32.2327 28.7156 32.8506 29.3223C33.4681 29.929 33.4041 30.8571 32.708 31.3955C30.8027 32.8691 27.9298 33.7246 24.8477 33.7246C21.7653 33.7246 18.8917 32.8693 16.9863 31.3955C16.2902 30.857 16.2269 29.929 16.8447 29.3223C17.4627 28.7155 18.5284 28.6597 19.2246 29.1982C20.3941 30.1028 22.4159 30.7871 24.8477 30.7871C27.2794 30.7871 29.3012 30.1028 30.4707 29.1982ZM37.875 3.41699L11.7021 3.47461C11.6719 3.47467 11.6415 3.47401 11.6113 3.47266C10.1646 3.40774 9.46872 3.84045 9.08887 4.24902C8.63933 4.73259 8.47571 5.36295 8.47559 5.7373C8.47559 6.40485 8.42356 7.2682 8.01562 8.4082C7.61505 9.52748 6.89216 10.8583 5.63086 12.5146C4.44132 14.0768 4.11726 14.8216 4.07031 15.3135C4.0298 15.7391 4.17218 16.1745 4.84473 17.2588C5.16664 17.7778 5.80168 18.2269 6.65918 18.5713C7.47781 18.9001 8.34188 19.0681 8.91602 19.1201C10.6951 19.141 11.9598 18.4997 12.8145 17.626C13.7185 16.7017 14.1493 15.5254 14.1494 14.625C14.1494 13.9025 14.7525 13.287 15.5713 13.1738C16.3902 13.0608 17.1823 13.4837 17.4385 14.1709C18.4396 16.8564 20.2857 18.0905 22.1309 18.6416C24.0683 19.2203 26.1179 19.071 27.3516 18.7725C28.4724 18.5011 29.5945 17.8532 30.5166 16.9873C31.4423 16.1179 32.0599 15.1294 32.2812 14.2939C32.4664 13.5957 33.2025 13.1156 34.0234 13.1582C34.8442 13.2008 35.5098 13.7535 35.5986 14.4658C35.7599 15.7625 36.0666 16.6079 36.5498 17.2305C37.0169 17.8321 37.7625 18.3705 39.1221 18.8594C41.355 19.6624 43.4201 18.4938 44.7842 17.3799C45.5301 16.7708 46.3965 15.0845 44.4102 12.8643C42.4818 10.7088 41.6505 8.63036 41.3818 6.48926L41.373 6.42578C41.3039 5.87369 41.2512 5.44721 41.1367 5.06641C41.0239 4.69111 40.8858 4.49134 40.7441 4.37109C40.3243 4.01505 39.7813 3.75869 39.2266 3.59863C38.6576 3.43452 38.1859 3.40235 37.9814 3.41406C37.9461 3.41609 37.9105 3.41692 37.875 3.41699Z" fill="#ED614A"/>
</svg>
