<svg width="44" height="44" viewBox="0 0 44 44" fill="none" xmlns="http://www.w3.org/2000/svg">
<path d="M3.88286 5.41868C3.88286 2.41573 6.33207 0 9.33023 0L33.6698 0C36.6679 0 39.1172 2.41573 39.1172 5.41868C39.1172 6.51945 39.4065 7.60178 39.9574 8.55879L41.9298 11.9855C42.4475 12.8839 42.8678 13.6134 42.9694 14.8334C43.0106 15.3291 43.0152 15.7462 42.9521 16.1488C42.8916 16.5344 42.7762 16.8434 42.6913 17.0708L42.6787 17.1045C41.6129 19.9657 38.8447 22 35.6025 22C32.8899 22 30.5046 20.5739 29.1748 18.4288C27.3677 20.6149 24.5893 22 21.5 22C18.4107 22 15.6323 20.6149 13.8252 18.4288C12.4955 20.5739 10.1101 22 7.39751 22C4.15535 22 1.3871 19.9657 0.321308 17.1045L0.308721 17.0708C0.223802 16.8434 0.108418 16.5344 0.0479423 16.1488C-0.0151981 15.7462 -0.0106162 15.3291 0.0306651 14.8334C0.132256 13.6134 0.552554 12.8839 1.07019 11.9855L3.04266 8.55879C3.59353 7.60178 3.88286 6.51945 3.88286 5.41868Z" fill="#ED614A"/>
<path d="M34.5 25.5C35.6046 25.5 36.5 26.3954 36.5 27.5V32.5H41.5C42.6046 32.5 43.5 33.3954 43.5 34.5C43.5 35.6046 42.6046 36.5 41.5 36.5H36.5V41.5C36.5 42.6046 35.6046 43.5 34.5 43.5C33.3954 43.5 32.5 42.6046 32.5 41.5V36.5H27.5C26.3954 36.5 25.5 35.6046 25.5 34.5C25.5 33.3954 26.3954 32.5 27.5 32.5H32.5V27.5C32.5 26.3954 33.3954 25.5 34.5 25.5ZM1.5 19.1875C2.50315 20.4363 3.89873 21.359 5.5 21.7715V27.0107C5.5 29.8953 5.50462 31.8576 5.70215 33.3271C5.892 34.7393 6.22673 35.3937 6.67188 35.8389C7.11699 36.2839 7.77081 36.6188 9.18262 36.8086C10.6523 37.0062 12.615 37.0107 15.5 37.0107H21.5C22.6046 37.0107 23.5 37.9062 23.5 39.0107C23.4999 40.1152 22.6045 41.0107 21.5 41.0107H15.3584C12.6504 41.0108 10.4168 41.0111 8.64941 40.7734C6.79392 40.5239 5.1549 39.9791 3.84277 38.667C2.53082 37.3548 1.98677 35.7158 1.7373 33.8604C1.49971 32.0929 1.49993 29.8594 1.5 27.1514V19.1875ZM19.5 29.5C20.6046 29.5 21.5 30.3954 21.5 31.5C21.5 32.6046 20.6046 33.5 19.5 33.5H11.5C10.3954 33.5 9.5 32.6046 9.5 31.5C9.5 30.3954 10.3954 29.5 11.5 29.5H19.5ZM41.5 24.5107C41.4999 25.6152 40.6045 26.5107 39.5 26.5107C38.3955 26.5107 37.5001 25.6152 37.5 24.5107V21.7715C39.1013 21.359 40.4969 20.4363 41.5 19.1875V24.5107Z" fill="#1C252E"/>
</svg>
