<svg width="36" height="35" viewBox="0 0 36 35" fill="none" xmlns="http://www.w3.org/2000/svg">
<path d="M27.5337 0.00435145C28.5116 -0.0455603 30.2145 0.326096 31.4453 1.52388C31.993 2.05683 32.2616 2.70358 32.4111 3.27418C32.5449 3.78519 32.6031 4.32338 32.6485 4.74353C32.6523 4.77874 32.6559 4.81313 32.6596 4.8466C32.811 6.2312 33.2617 7.55652 34.3922 9.00646C36.632 11.8794 35.9375 14.7773 34.4078 16.2108C34.3337 16.2802 34.252 16.3543 34.1635 16.4322V22.9911C34.1635 25.2733 34.1636 27.1126 33.9694 28.559C33.7677 30.0606 33.3362 31.325 32.3333 32.3292C31.3301 33.3335 30.0668 33.7654 28.5664 33.9674C27.1214 34.1619 25.2843 34.1621 23.0051 34.1621H12.8219C10.5426 34.1621 8.70529 34.1619 7.26025 33.9674C5.75982 33.7654 4.49654 33.3332 3.49343 32.3289C2.49058 31.3247 2.05924 30.0605 1.85761 28.559C1.66338 27.1126 1.66346 25.2733 1.6635 22.9911V16.5107C1.36451 16.2139 1.09504 15.87 0.879844 15.4719C0.377397 14.5423 -0.0838608 13.5886 0.0129568 12.4214C0.1051 11.3106 0.685739 10.2092 1.57876 8.86343C2.4189 7.59739 2.83392 6.67969 3.04361 6.00736C3.24771 5.35291 3.27167 4.88715 3.27167 4.47881C3.2717 3.70551 3.52192 2.57935 4.28399 1.63867C5.09263 0.640521 6.38486 -0.0307329 8.19024 0.0527289L27.5337 0.00435145ZM11.5397 15.3111C11.3517 15.6267 11.1357 15.9311 10.8916 16.2174C9.80575 17.4911 8.15555 18.4149 5.99763 18.3658C5.96905 18.3652 5.94047 18.3636 5.91199 18.361C5.42892 18.3168 4.81002 18.1979 4.1635 17.9809V22.8998C4.1635 25.2949 4.16609 26.9657 4.33537 28.2264C4.49985 29.4513 4.8008 30.1002 5.26236 30.5623C5.72368 31.0242 6.37115 31.3253 7.59379 31.4899C8.85258 31.6594 10.5211 31.6621 12.9135 31.6621H22.9135C25.3058 31.6621 26.9741 31.6594 28.2329 31.4899C29.4556 31.3253 30.1033 31.0243 30.5646 30.5623C31.0262 30.1002 31.3271 29.4512 31.4916 28.2264C31.6609 26.9657 31.6635 25.2949 31.6635 22.8998V17.9887C30.4972 18.4338 29.0867 18.5923 27.5454 17.9563C26.2235 17.4108 25.2165 16.688 24.5211 15.6603C24.4485 15.553 24.3803 15.4438 24.3161 15.3328C24.1984 15.4767 24.076 15.6169 23.9499 15.7529C23.0269 16.7475 21.8126 17.5985 20.4393 17.98C19.1537 18.3371 17.1043 18.5161 15.0878 17.825C13.7912 17.3806 12.5397 16.585 11.5397 15.3111ZM22.0836 24.4431C22.5999 23.9848 23.39 24.0317 23.8483 24.5479C24.3066 25.0642 24.2594 25.8544 23.7431 26.3126C22.3301 27.5668 20.1993 28.2943 17.9135 28.2943C15.6276 28.2943 13.4966 27.5668 12.0836 26.3126C11.5673 25.8544 11.5204 25.0642 11.9787 24.5479C12.437 24.0317 13.2269 23.9848 13.7431 24.4431C14.6104 25.2129 16.11 25.7943 17.9135 25.7943C19.7168 25.7943 21.2162 25.2128 22.0836 24.4431ZM27.6533 2.50165C27.627 2.50337 27.6006 2.50429 27.5743 2.50435L8.1644 2.55273C8.14196 2.55278 8.11951 2.55238 8.09709 2.55123C7.02421 2.49596 6.50832 2.8646 6.2266 3.21228C5.89315 3.62389 5.77171 4.16027 5.77167 4.47881C5.77167 5.04696 5.73295 5.78164 5.43032 6.75195C5.13325 7.70442 4.59735 8.83641 3.662 10.2459C2.77955 11.5757 2.53926 12.2096 2.50454 12.6282C2.47451 12.9903 2.58038 13.3603 3.07906 14.2829C3.31778 14.7245 3.78844 15.107 4.42431 15.4001C5.03147 15.6799 5.6725 15.8231 6.09829 15.8673C7.41761 15.8851 8.35542 15.3392 8.98922 14.5957C9.65978 13.8091 9.97928 12.8079 9.9793 12.0416C9.9793 11.4267 10.4267 10.9031 11.034 10.8069C11.6413 10.7108 12.2283 11.0707 12.4183 11.6555C13.1607 13.9407 14.5299 14.9909 15.8982 15.4599C17.3351 15.9523 18.8553 15.8255 19.7702 15.5714C20.6014 15.3405 21.4337 14.7893 22.1175 14.0524C22.804 13.3126 23.2614 12.4713 23.4255 11.7604C23.5627 11.166 24.109 10.7575 24.7179 10.7937C25.3267 10.83 25.8204 11.3006 25.8862 11.907C26.0058 13.0106 26.2332 13.7296 26.5917 14.2595C26.9381 14.7714 27.4907 15.2292 28.4988 15.6453C30.1549 16.3287 31.6867 15.3342 32.6984 14.3863C33.2515 13.8678 33.8934 12.4327 32.4204 10.5434C30.9903 8.70911 30.3738 6.94034 30.1746 5.11823L30.1686 5.06445C30.1173 4.59459 30.0777 4.23167 29.9928 3.9076C29.9091 3.58804 29.8068 3.41795 29.7017 3.31565C29.3903 3.01268 28.988 2.795 28.5767 2.6588C28.1548 2.51912 27.805 2.49171 27.6533 2.50165Z" fill="#ED614A"/>
</svg>
